<?xml version="1.0" encoding="UTF-8"?>
<!DOCTYPE svg PUBLIC "-//W3C//DTD SVG 1.1//EN" "http://www.w3.org/Graphics/SVG/1.1/DTD/svg11.dtd">
<svg xmlns="http://www.w3.org/2000/svg" version="1.1" width="96px" height="96px" style="shape-rendering:geometricPrecision; text-rendering:geometricPrecision; image-rendering:optimizeQuality; fill-rule:evenodd; clip-rule:evenodd" xmlns:xlink="http://www.w3.org/1999/xlink">
<g><path style="opacity:0.996" fill="#bbdefa" d="M 15.5,11.5 C 36.8359,11.3334 58.1693,11.5 79.5,12C 80.4162,12.3742 81.2496,12.8742 82,13.5C 83.1462,24.7404 83.6462,36.0737 83.5,47.5C 93.1667,81.1667 81.1667,93.1667 47.5,83.5C 36.8333,83.3333 26.1667,83.1667 15.5,83C 14.5838,82.6258 13.7504,82.1258 13,81.5C 11.3556,59.5886 11.0222,37.5886 12,15.5C 12.6897,13.6498 13.8564,12.3164 15.5,11.5 Z"/></g>
<g><path style="opacity:1" fill="#1564c0" d="M 23.5,23.5 C 23.5,24.8333 23.5,26.1667 23.5,27.5C 23.5,39.5 23.5,51.5 23.5,63.5C 23.1936,66.3854 23.5269,69.0521 24.5,71.5C 28.1667,71.5 31.8333,71.5 35.5,71.5C 36.8333,71.5 38.1667,71.5 39.5,71.5C 43.5,71.5 47.5,71.5 51.5,71.5C 52.8333,71.5 54.1667,71.5 55.5,71.5C 59.5,71.5 63.5,71.5 67.5,71.5C 68.8333,71.5 70.1667,71.5 71.5,71.5C 72.8333,71.5 74.1667,71.5 75.5,71.5C 75.5,72.8333 75.5,74.1667 75.5,75.5C 56.8333,75.5 38.1667,75.5 19.5,75.5C 19.5,56.8333 19.5,38.1667 19.5,19.5C 20.8333,19.5 22.1667,19.5 23.5,19.5C 23.5,20.8333 23.5,22.1667 23.5,23.5 Z"/></g>
<g><path style="opacity:1" fill="#e1f1fc" d="M 65.5,23.5 C 65.5,24.5 65.5,25.5 65.5,26.5C 65.5,26.8333 65.5,27.1667 65.5,27.5C 62.1667,27.5 58.8333,27.5 55.5,27.5C 55.5,31.5 55.5,35.5 55.5,39.5C 57.099,39.2322 58.4324,39.5655 59.5,40.5C 57.2288,44.7091 55.2288,49.0424 53.5,53.5C 52.8333,53.5 52.1667,53.5 51.5,53.5C 51.5,53.1667 51.5,52.8333 51.5,52.5C 51.5,49.5 51.5,46.5 51.5,43.5C 48.5,43.5 45.5,43.5 42.5,43.5C 42.1667,43.5 41.8333,43.5 41.5,43.5C 41.5,42.1667 41.5,40.8333 41.5,39.5C 44.8333,39.5 48.1667,39.5 51.5,39.5C 51.5,35.5 51.5,31.5 51.5,27.5C 47.5,27.5 43.5,27.5 39.5,27.5C 39.5,30.8333 39.5,34.1667 39.5,37.5C 38.1667,37.5 36.8333,37.5 35.5,37.5C 35.5,34.1667 35.5,30.8333 35.5,27.5C 31.5,27.5 27.5,27.5 23.5,27.5C 23.5,26.1667 23.5,24.8333 23.5,23.5C 27.5,23.5 31.5,23.5 35.5,23.5C 35.5,22.1667 35.5,20.8333 35.5,19.5C 36.8333,19.5 38.1667,19.5 39.5,19.5C 39.5,20.8333 39.5,22.1667 39.5,23.5C 43.5,23.5 47.5,23.5 51.5,23.5C 51.5,22.1667 51.5,20.8333 51.5,19.5C 52.8333,19.5 54.1667,19.5 55.5,19.5C 55.5,20.8333 55.5,22.1667 55.5,23.5C 58.8333,23.5 62.1667,23.5 65.5,23.5 Z"/></g>
<g><path style="opacity:1" fill="#1b4ea5" d="M 71.5,29.5 C 70.8333,29.5 70.1667,29.5 69.5,29.5C 67.5695,29.2294 66.2362,28.2294 65.5,26.5C 65.5,25.5 65.5,24.5 65.5,23.5C 69.1537,20.4133 71.8204,21.08 73.5,25.5C 73.2483,27.0729 72.5817,28.4062 71.5,29.5 Z"/></g>
<g><path style="opacity:1" fill="#baddfa" d="M 41.5,39.5 C 40.5,39.1667 39.8333,38.5 39.5,37.5C 39.8333,38.5 40.5,39.1667 41.5,39.5 Z"/></g>
<g><path style="opacity:1" fill="#b9ddfa" d="M 65.5,27.5 C 63.7365,32.022 61.7365,36.3554 59.5,40.5C 58.4324,39.5655 57.099,39.2322 55.5,39.5C 55.5,35.5 55.5,31.5 55.5,27.5C 58.8333,27.5 62.1667,27.5 65.5,27.5 Z"/></g>
<g><path style="opacity:1" fill="#2d8ce5" d="M 65.5,26.5 C 66.2362,28.2294 67.5695,29.2294 69.5,29.5C 67.2288,33.7091 65.2288,38.0424 63.5,42.5C 60.7105,46.4156 58.7105,50.749 57.5,55.5C 57.5,55.8333 57.5,56.1667 57.5,56.5C 56.7638,54.7706 55.4305,53.7706 53.5,53.5C 55.2288,49.0424 57.2288,44.7091 59.5,40.5C 61.7365,36.3554 63.7365,32.022 65.5,27.5C 65.5,27.1667 65.5,26.8333 65.5,26.5 Z"/></g>
<g><path style="opacity:1" fill="#e0f0fc" d="M 69.5,29.5 C 70.1667,29.5 70.8333,29.5 71.5,29.5C 71.5,32.8333 71.5,36.1667 71.5,39.5C 72.8333,39.5 74.1667,39.5 75.5,39.5C 75.5,40.8333 75.5,42.1667 75.5,43.5C 74.1667,43.5 72.8333,43.5 71.5,43.5C 71.5,47.5 71.5,51.5 71.5,55.5C 72.8333,55.5 74.1667,55.5 75.5,55.5C 75.5,56.8333 75.5,58.1667 75.5,59.5C 74.1667,59.5 72.8333,59.5 71.5,59.5C 71.5,63.5 71.5,67.5 71.5,71.5C 70.1667,71.5 68.8333,71.5 67.5,71.5C 67.5,67.5 67.5,63.5 67.5,59.5C 64.1667,59.5 60.8333,59.5 57.5,59.5C 57.5,58.5 57.5,57.5 57.5,56.5C 57.5,56.1667 57.5,55.8333 57.5,55.5C 60.8333,55.5 64.1667,55.5 67.5,55.5C 67.5,51.5 67.5,47.5 67.5,43.5C 65.901,43.7678 64.5676,43.4345 63.5,42.5C 65.2288,38.0424 67.2288,33.7091 69.5,29.5 Z"/></g>
<g><path style="opacity:1" fill="#174ca4" d="M 35.5,37.5 C 36.8333,37.5 38.1667,37.5 39.5,37.5C 39.8333,38.5 40.5,39.1667 41.5,39.5C 41.5,40.8333 41.5,42.1667 41.5,43.5C 40.5,43.8333 39.8333,44.5 39.5,45.5C 38.8333,45.5 38.1667,45.5 37.5,45.5C 35.5695,45.2294 34.2362,44.2294 33.5,42.5C 33.3915,40.4862 34.0582,38.8195 35.5,37.5 Z"/></g>
<g><path style="opacity:1" fill="#c2e1fb" d="M 23.5,27.5 C 27.5,27.5 31.5,27.5 35.5,27.5C 35.5,30.8333 35.5,34.1667 35.5,37.5C 34.0582,38.8195 33.3915,40.4862 33.5,42.5C 30.9383,49.9535 27.605,56.9535 23.5,63.5C 23.5,51.5 23.5,39.5 23.5,27.5 Z"/></g>
<g><path style="opacity:1" fill="#b0d7f9" d="M 42.5,43.5 C 45.5,43.5 48.5,43.5 51.5,43.5C 51.5,46.5 51.5,49.5 51.5,52.5C 48.1667,49.8333 45.1667,46.8333 42.5,43.5 Z"/></g>
<g><path style="opacity:1" fill="#b7dbfa" d="M 63.5,42.5 C 64.5676,43.4345 65.901,43.7678 67.5,43.5C 67.5,47.5 67.5,51.5 67.5,55.5C 64.1667,55.5 60.8333,55.5 57.5,55.5C 58.7105,50.749 60.7105,46.4156 63.5,42.5 Z"/></g>
<g><path style="opacity:1" fill="#1e87e4" d="M 41.5,43.5 C 41.8333,43.5 42.1667,43.5 42.5,43.5C 45.1667,46.8333 48.1667,49.8333 51.5,52.5C 51.5,52.8333 51.5,53.1667 51.5,53.5C 51.1667,54.5 50.5,55.1667 49.5,55.5C 49.1667,55.5 48.8333,55.5 48.5,55.5C 45.8333,52.1667 42.8333,49.1667 39.5,46.5C 39.5,46.1667 39.5,45.8333 39.5,45.5C 39.8333,44.5 40.5,43.8333 41.5,43.5 Z"/></g>
<g><path style="opacity:1" fill="#2a8be5" d="M 33.5,42.5 C 34.2362,44.2294 35.5695,45.2294 37.5,45.5C 35.2288,49.7091 33.2288,54.0424 31.5,58.5C 28.9284,62.6392 26.5951,66.9726 24.5,71.5C 23.5269,69.0521 23.1936,66.3854 23.5,63.5C 27.605,56.9535 30.9383,49.9535 33.5,42.5 Z"/></g>
<g><path style="opacity:1" fill="#ddeffc" d="M 37.5,45.5 C 38.1667,45.5 38.8333,45.5 39.5,45.5C 39.5,45.8333 39.5,46.1667 39.5,46.5C 39.5,49.5 39.5,52.5 39.5,55.5C 42.5,55.5 45.5,55.5 48.5,55.5C 48.8333,55.5 49.1667,55.5 49.5,55.5C 49.5,56.8333 49.5,58.1667 49.5,59.5C 46.1667,59.5 42.8333,59.5 39.5,59.5C 39.5,63.5 39.5,67.5 39.5,71.5C 38.1667,71.5 36.8333,71.5 35.5,71.5C 35.5,67.5 35.5,63.5 35.5,59.5C 33.901,59.7678 32.5676,59.4345 31.5,58.5C 33.2288,54.0424 35.2288,49.7091 37.5,45.5 Z"/></g>
<g><path style="opacity:1" fill="#b1d8f9" d="M 39.5,46.5 C 42.8333,49.1667 45.8333,52.1667 48.5,55.5C 45.5,55.5 42.5,55.5 39.5,55.5C 39.5,52.5 39.5,49.5 39.5,46.5 Z"/></g>
<g><path style="opacity:1" fill="#174da5" d="M 51.5,53.5 C 52.1667,53.5 52.8333,53.5 53.5,53.5C 55.4305,53.7706 56.7638,54.7706 57.5,56.5C 57.5,57.5 57.5,58.5 57.5,59.5C 56.5,59.8333 55.8333,60.5 55.5,61.5C 54.1667,61.5 52.8333,61.5 51.5,61.5C 51.1667,60.5 50.5,59.8333 49.5,59.5C 49.5,58.1667 49.5,56.8333 49.5,55.5C 50.5,55.1667 51.1667,54.5 51.5,53.5 Z"/></g>
<g><path style="opacity:1" fill="#b6dbfa" d="M 31.5,58.5 C 32.5676,59.4345 33.901,59.7678 35.5,59.5C 35.5,63.5 35.5,67.5 35.5,71.5C 31.8333,71.5 28.1667,71.5 24.5,71.5C 26.5951,66.9726 28.9284,62.6392 31.5,58.5 Z"/></g>
<g><path style="opacity:1" fill="#baddfa" d="M 49.5,59.5 C 50.5,59.8333 51.1667,60.5 51.5,61.5C 51.5,64.8333 51.5,68.1667 51.5,71.5C 47.5,71.5 43.5,71.5 39.5,71.5C 39.5,67.5 39.5,63.5 39.5,59.5C 42.8333,59.5 46.1667,59.5 49.5,59.5 Z"/></g>
<g><path style="opacity:1" fill="#baddfa" d="M 57.5,59.5 C 60.8333,59.5 64.1667,59.5 67.5,59.5C 67.5,63.5 67.5,67.5 67.5,71.5C 63.5,71.5 59.5,71.5 55.5,71.5C 55.5,68.1667 55.5,64.8333 55.5,61.5C 55.8333,60.5 56.5,59.8333 57.5,59.5 Z"/></g>
<g><path style="opacity:1" fill="#e2f2fc" d="M 51.5,61.5 C 52.8333,61.5 54.1667,61.5 55.5,61.5C 55.5,64.8333 55.5,68.1667 55.5,71.5C 54.1667,71.5 52.8333,71.5 51.5,71.5C 51.5,68.1667 51.5,64.8333 51.5,61.5 Z"/></g>
</svg>
