<?xml version="1.0" encoding="utf-8"?>
<svg version="1.0" width="256.000000pt" height="256.000000pt" viewBox="0 0 256.000000 256.000000" preserveAspectRatio="xMidYMid meet" xmlns="http://www.w3.org/2000/svg">
  <g transform="translate(0.000000,256.000000) scale(0.100000,-0.100000)" fill="#000000" stroke="none">
    <path d="M0 1280 l0 -1280 1280 0 1280 0 0 1280 0 1280 -1280 0 -1280 0 0 -1280z m1001 719 c111 -64 161 -98 164 -113 3 -11 4 -162 3 -334 -2 -171 -2 -312 0 -312 1 0 57 31 123 69 l122 69 -2 169 c-2 152 0 170 16 185 10 9 87 55 170 103 l153 88 127 -73 c71 -41 145 -84 166 -97 l37 -23 0 -193 0 -192 -150 -85 -150 -85 0 -171 c0 -150 -2 -173 -17 -186 -45 -39 -600 -348 -626 -348 -17 0 -137 63 -330 174 l-302 175 -3 543 -2 544 157 91 c87 50 164 92 172 92 7 1 85 -40 172 -90z" style="fill: rgb(255, 41, 25); stroke: rgb(0, 0, 0); stroke-width: 10px;"/>
    <path d="M716 1965 c-60 -36 -113 -68 -118 -73 -9 -9 213 -142 236 -142 6 0 64 31 129 69 l118 69 -124 71 c-68 39 -126 71 -128 70 -2 0 -53 -29 -113 -64z" style="fill: rgb(255, 41, 25); stroke: rgb(0, 0, 0); stroke-width: 10px;"/>
    <path d="M1700 1831 c-25 -16 -80 -48 -122 -73 l-77 -44 124 -72 125 -72 125 72 c102 59 121 74 107 82 -9 5 -66 38 -126 73 -60 35 -109 63 -110 62 0 0 -21 -13 -46 -28z" style="fill: rgb(255, 41, 25); stroke: rgb(0, 0, 0); stroke-width: 10px;"/>
    <path d="M552 1349 l3 -494 273 -157 c151 -87 276 -158 278 -158 2 0 4 64 4 143 l-1 142 -152 85 -152 85 -3 352 -2 351 -103 58 c-56 31 -112 64 -125 72 l-22 14 2 -493z" style="fill: rgb(255, 41, 25); fill-rule: nonzero; stroke: rgb(0, 0, 0); paint-order: fill; stroke-width: 10px;"/>
    <path d="M983 1767 l-123 -72 0 -317 0 -317 125 72 125 71 0 318 c0 175 -1 318 -2 317 -2 0 -58 -33 -125 -72z" style="fill: rgb(255, 41, 25); stroke: rgb(0, 0, 0); stroke-width: 10px;"/>
    <path d="M1470 1522 l0 -139 83 -48 c45 -26 101 -59 125 -72 l42 -25 0 144 0 143 -116 65 c-64 36 -120 67 -125 68 -5 2 -9 -55 -9 -136z" style="fill: rgb(255, 41, 25); stroke: rgb(0, 0, 0); stroke-width: 10px;"/>
    <path d="M1898 1592 l-117 -67 -1 -143 0 -144 43 25 c23 13 79 46 125 72 l82 48 0 138 c0 77 -3 139 -7 138 -5 0 -61 -30 -125 -67z" style="fill: rgb(255, 41, 25); stroke: rgb(0, 0, 0); stroke-width: 10px;"/>
    <path d="M1380 1296 c-30 -18 -153 -90 -273 -159 l-218 -125 103 -57 c57 -32 112 -64 123 -71 19 -12 48 2 299 145 l278 159 -74 42 c-40 24 -94 56 -121 71 -26 16 -51 29 -55 29 -4 0 -32 -16 -62 -34z" style="fill: rgb(255, 41, 25); stroke: rgb(0, 0, 0); stroke-width: 10px;"/>
    <path d="M1442 981 l-273 -157 -2 -142 c-1 -78 0 -142 2 -142 2 0 127 71 278 157 l273 158 0 142 c0 79 -1 143 -2 142 -2 0 -126 -72 -276 -158z" style="stroke: rgb(0, 0, 0); fill: rgb(255, 41, 25); stroke-width: 10px;"/>
  </g>
</svg>